name Walk9.mot
datacolumns 19
datarows 30
range 2.47000000 2.61500000
endheader

                time	   L_ground_force_vx	   L_ground_force_vy	   L_ground_force_vz	   L_ground_force_px	   L_ground_force_py	   L_ground_force_pz	   R_ground_force_vx	   R_ground_force_vy	   R_ground_force_vz	   R_ground_force_px	   R_ground_force_py	   R_ground_force_pz	   L_ground_torque_x	   L_ground_torque_y	   L_ground_torque_z	   R_ground_torque_x	   R_ground_torque_y	   R_ground_torque_z	
          2.47000000	         21.17847840	        663.92029349	         33.71568483	         -0.38368164	          0.00000000	         -0.06763378	         -0.00990214	          0.18542546	          0.02363780	          0.00006891	          0.00000000	          0.00004529	          0.00000000	          0.72765722	          0.00000000	          0.00000000	         -0.00681958	          0.00000000	
          2.47500000	         22.71154922	        669.71743504	         34.35444633	         -0.38169775	          0.00000000	         -0.06796662	         -0.01692423	          0.23806366	          0.02904571	          0.00008386	          0.00000000	          0.00005447	          0.00000000	          0.72740141	          0.00000000	          0.00000000	         -0.00789797	          0.00000000	
          2.48000000	         24.29068985	        675.62824426	         34.99122655	         -0.37969709	          0.00000000	         -0.06829283	         -0.02578711	          0.29078667	          0.03389653	          0.00009683	          0.00000000	          0.00006207	          0.00000000	          0.72999567	          0.00000000	          0.00000000	         -0.00860554	          0.00000000	
          2.48500000	         25.91098187	        681.61646622	         35.61942773	         -0.37767540	          0.00000000	         -0.06861756	         -0.03642742	          0.33713969	          0.03728042	          0.00010512	          0.00000000	          0.00006627	          0.00000000	          0.73672239	          0.00000000	          0.00000000	         -0.00864760	          0.00000000	
          2.49000000	         27.56291721	        687.64141207	         36.23300643	         -0.37562669	          0.00000000	         -0.06894497	         -0.04852718	          0.36784287	          0.03795945	          0.00010509	          0.00000000	          0.00006463	          0.00000000	          0.74892885	          0.00000000	          0.00000000	         -0.00764671	          0.00000000	
          2.49500000	         29.23200485	        693.65743232	         36.82567659	         -0.37354417	          0.00000000	         -0.06927729	         -0.06141055	          0.37035542	          0.03433686	          0.00009207	          0.00000000	          0.00005411	          0.00000000	          0.76789524	          0.00000000	          0.00000000	         -0.00514288	          0.00000000	
          2.50000000	         30.90029181	        699.61491575	         37.39063659	         -0.37142141	          0.00000000	         -0.06961649	         -0.07392696	          0.32859823	          0.02445317	          0.00006041	          0.00000000	          0.00003103	          0.00000000	          0.79461426	          0.00000000	          0.00000000	         -0.00060420	          0.00000000	
          2.50500000	         32.54857660	        705.46462860	         37.92071793	         -0.36925288	          0.00000000	         -0.06996399	         -0.08432752	          0.22295751	          0.00602497	          0.00000360	          0.00000000	         -0.00000878	          0.00000000	          0.82945264	          0.00000000	          0.00000000	          0.00654785	          0.00000000	
          2.51000000	         34.15799937	        711.15873165	         38.40769424	         -0.36703452	          0.00000000	         -0.07032061	         -0.09014600	          0.03072661	         -0.02345463	         -0.00008544	          0.00000000	         -0.00006978	          0.00000000	          0.87207960	          0.00000000	          0.00000000	          0.01689306	          0.00000000	
          2.51500000	         35.71242223	        716.65280445	         38.84140884	         -0.36476449	          0.00000000	         -0.07068699	         -0.08810169	         -0.27282382	         -0.06653190	         -0.00021374	          0.00000000	         -0.00015630	          0.00000000	          0.92178503	          0.00000000	          0.00000000	          0.03094180	          0.00000000	
          2.52000000	         37.19997651	        721.91122938	         39.21108899	         -0.36244359	          0.00000000	         -0.07106250	         -0.07404842	         -0.71252737	         -0.12550048	         -0.00038746	          0.00000000	         -0.00027194	          0.00000000	          0.97745692	          0.00000000	          0.00000000	          0.04903311	          0.00000000	
          2.52500000	         38.61455908	        726.91103092	         39.50786256	         -0.36007490	          0.00000000	         -0.07144447	         -0.04300178	         -1.31031752	         -0.20197716	         -0.00061057	          0.00000000	         -0.00041873	          0.00000000	          1.03782235	          0.00000000	          0.00000000	          0.07119719	          0.00000000	
          2.53000000	         39.95755926	        731.63960517	         39.72626247	         -0.35766411	          0.00000000	         -0.07182884	          0.01071504	         -2.08090040	         -0.29632387	         -0.00088318	          0.00000000	         -0.00059599	          0.00000000	          1.10165896	          0.00000000	          0.00000000	          0.09697878	          0.00000000	
          2.53500000	         41.23781097	        736.09192859	         39.86577738	         -0.35521971	          0.00000000	         -0.07221078	          0.09315849	         -3.02589827	         -0.40690117	         -0.00119935	          0.00000000	         -0.00079890	          0.00000000	          1.16792459	          0.00000000	          0.00000000	          0.12522187	          0.00000000	
          2.54000000	         42.47043467	        740.26662916	         39.93152170	         -0.35275240	          0.00000000	         -0.07258392	          0.21023009	         -4.12633055	         -0.52915084	         -0.00154448	          0.00000000	         -0.00101678	          0.00000000	          1.23577241	          0.00000000	          0.00000000	          0.15382019	          0.00000000	
          2.54500000	         43.67567899	        744.15869578	         39.93305132	         -0.35027391	          0.00000000	         -0.07294141	          0.36686188	         -5.33342989	         -0.65452532	         -0.00189219	          0.00000000	         -0.00123116	          0.00000000	          1.30459687	          0.00000000	          0.00000000	          0.17944549	          0.00000000	
          2.55000000	         44.87622480	        747.75499101	         39.88187375	         -0.34779646	          0.00000000	         -0.07327697	          0.56586596	         -6.55799443	         -0.76931039	         -0.00220104	          0.00000000	         -0.00141361	          0.00000000	          1.37376810	          0.00000000	          0.00000000	          0.19727439	          0.00000000	
          2.55500000	         46.09486097	        751.02779017	         39.78932218	         -0.34533216	          0.00000000	         -0.07358468	          0.80640171	         -7.65877068	         -0.85342633	         -0.00241121	          0.00000000	         -0.00152378	          0.00000000	          1.44258343	          0.00000000	          0.00000000	          0.20074694	          0.00000000	
          2.56000000	         47.35299070	        753.92936618	         39.66451965	         -0.34289157	          0.00000000	         -0.07385928	          1.08203630	         -8.43075735	         -0.87934360	         -0.00244157	          0.00000000	         -0.00150766	          0.00000000	          1.51012825	          0.00000000	          0.00000000	          0.18140423	          0.00000000	
          2.56500000	         48.66908724	        756.39433979	         39.51221544	         -0.34048254	          0.00000000	         -0.07409739	          1.37840984	         -8.59482857	         -0.81131069	         -0.00218779	          0.00000000	         -0.00129658	          0.00000000	          1.57531249	          0.00000000	          0.00000000	          0.12886938	          0.00000000	
          2.57000000	         50.05786504	        758.34488002	         39.33147045	         -0.33811037	          0.00000000	         -0.07429746	          1.67057208	         -7.79069419	         -0.60516417	         -0.00152225	          0.00000000	         -0.00080753	          0.00000000	          1.63679853	          0.00000000	          0.00000000	          0.03105437	          0.00000000	
          2.57500000	         51.53070308	        759.69688690	         39.11665287	         -0.33577965	          0.00000000	         -0.07445910	          1.92013550	         -5.57593201	         -0.20906973	         -0.00029667	          0.00000000	          0.00005468	          0.00000000	          1.69290903	          0.00000000	          0.00000000	         -0.12530624	          0.00000000	
          2.58000000	         53.09685267	        760.37190408	         38.86022684	         -0.33349521	          0.00000000	         -0.07458285	          2.07249301	         -1.43460780	          0.43437607	          0.00165106	          0.00000000	          0.00139246	          0.00000000	          1.74182664	          0.00000000	          0.00000000	         -0.35367802	          0.00000000	
          2.58500000	         54.76563041	        760.30753445	         38.55560438	         -0.33126379	          0.00000000	         -0.07467013	          2.05447963	          5.20021657	          1.38418163	          0.00448468	          0.00000000	          0.00330682	          0.00000000	          1.78208827	          0.00000000	          0.00000000	         -0.66617792	          0.00000000	
          2.59000000	         56.54975091	        759.45880033	         38.19861245	         -0.32909478	          0.00000000	         -0.07472251	          1.77301491	         14.90509434	          2.69458068	          0.00835029	          0.00000000	          0.00588422	          0.00000000	          1.81254291	          0.00000000	          0.00000000	         -1.07132547	          0.00000000	
          2.59500000	         58.46797104	        757.79849906	         37.78792285	         -0.32700026	          0.00000000	         -0.07474171	          1.11544201	         28.20046715	          4.40567292	          0.01334842	          0.00000000	          0.00917768	          0.00000000	          1.83255209	          0.00000000	          0.00000000	         -1.57097984	          0.00000000	
          2.60000000	         60.54505135	        755.31377671	         37.32470081	         -0.32499509	          0.00000000	         -0.07472962	         -0.04752915	         45.45509229	          6.53057225	          0.01949616	          0.00000000	          0.01318156	          0.00000000	          1.84250650	          0.00000000	          0.00000000	         -2.15638478	          0.00000000	
          2.60500000	         62.80970125	        751.99972412	         36.81048809	         -0.32309639	          0.00000000	         -0.07468811	         -1.85518110	         66.75571537	          9.03869421	          0.02667841	          0.00000000	          0.01779948	          0.00000000	          1.84385911	          0.00000000	          0.00000000	         -2.80331058	          0.00000000	
          2.61000000	         65.29061285	        747.84433380	         36.24379409	         -0.32132272	          0.00000000	         -0.07461998	         -4.44519238	         91.73870721	         11.83509518	          0.03458838	          0.00000000	          0.02280565	          0.00000000	          1.83874992	          0.00000000	          0.00000000	         -3.46639117	          0.00000000	
          2.61500000	         68.01026445	        742.81051062	         35.61661690	         -0.31969279	          0.00000000	         -0.07452780	         -7.93419227	        119.40830942	         14.73904096	          0.04271175	          0.00000000	          0.02783966	          0.00000000	          1.82932366	          0.00000000	          0.00000000	         -4.07409284	          0.00000000	
